<svg width="76" height="76" viewBox="0 0 76 76" fill="none" xmlns="http://www.w3.org/2000/svg">
<path d="M27.0276 3.70654C15.5586 3.70654 10.5276 11.354 10.5276 17.4292C10.5276 22.0772 13.0001 25.5619 16.2434 27.6772C19.4867 29.7926 23.4735 30.7065 27.0276 30.7065C28.5608 30.7065 30.1709 30.5145 31.7678 30.1382C35.1896 33.7483 40.4935 35.2065 45.0276 35.2065C48.5954 35.2065 52.5889 34.2404 55.8293 32.063C59.0698 29.8856 61.5276 26.3408 61.5276 21.648C61.5276 17.9159 59.8652 14.4718 56.9602 12.0503C54.0552 9.62876 49.9474 8.20654 45.0276 8.20654C43.2597 8.20654 41.6482 8.39043 40.1731 8.71338C39.7947 8.30661 39.396 7.91352 38.9602 7.55029C36.0552 5.12876 31.9474 3.70654 27.0276 3.70654ZM27.0276 6.70654C31.3703 6.70654 34.7619 7.95599 37.0413 9.85596C37.4522 10.1985 37.8171 10.567 38.1575 10.9487L38.1604 10.9517C38.2733 11.2363 38.4706 11.4797 38.7258 11.6489C39.9027 13.2433 40.5276 15.1087 40.5276 17.148C40.5276 20.8356 38.772 23.3153 36.1565 25.0728C33.541 26.8302 30.0358 27.7065 27.0276 27.7065C24.0057 27.7065 20.4938 26.8706 17.8811 25.1665C15.2684 23.4624 13.5276 21.0597 13.5276 17.4292C13.5276 12.9324 16.8396 6.70654 27.0276 6.70654ZM45.0276 11.2065C49.3703 11.2065 52.7619 12.456 55.0413 14.356C57.3206 16.2559 58.5276 18.786 58.5276 21.648C58.5276 25.3356 56.772 27.8153 54.1565 29.5728C51.541 31.3302 48.0358 32.2065 45.0276 32.2065C41.6728 32.2065 37.7844 31.1337 35.0842 29.0483C36.0376 28.6342 36.9614 28.1462 37.8293 27.563C41.0698 25.3856 43.5276 21.8408 43.5276 17.148C43.5276 15.1073 43.0145 13.16 42.0891 11.4116C42.9977 11.2825 43.9707 11.2065 45.0276 11.2065ZM8.27759 27.7065C5.55799 27.7065 3.02759 29.5364 3.02759 32.2065C3.02759 34.8767 5.55799 36.7065 8.27759 36.7065C10.9972 36.7065 13.5276 34.8767 13.5276 32.2065C13.5276 29.5364 10.9972 27.7065 8.27759 27.7065ZM66.7776 27.7065C64.058 27.7065 61.5276 29.5364 61.5276 32.2065C61.5276 34.8767 64.058 36.7065 66.7776 36.7065C69.4972 36.7065 72.0276 34.8767 72.0276 32.2065C72.0276 29.5364 69.4972 27.7065 66.7776 27.7065ZM8.27759 30.7065C9.70013 30.7065 10.5276 31.563 10.5276 32.2065C10.5276 32.8501 9.70013 33.7065 8.27759 33.7065C6.85505 33.7065 6.02759 32.8501 6.02759 32.2065C6.02759 31.563 6.85505 30.7065 8.27759 30.7065ZM66.7776 30.7065C68.2001 30.7065 69.0276 31.563 69.0276 32.2065C69.0276 32.8501 68.2001 33.7065 66.7776 33.7065C65.355 33.7065 64.5276 32.8501 64.5276 32.2065C64.5276 31.563 65.355 30.7065 66.7776 30.7065ZM21.0745 36.7065C17.8258 36.7065 15.193 37.5198 13.3401 39.0708C11.4872 40.6218 10.5276 42.8994 10.5276 45.3315C10.5276 46.2735 10.7447 47.2326 10.9436 48.0532C11.0348 48.4293 11.0559 48.4688 11.1282 48.7271C10.7935 49.2623 10.5276 50.0004 10.5276 50.9565C10.5276 52.144 10.8479 53.1635 11.5295 53.8452C11.8349 54.1505 12.1641 54.0991 12.5081 54.2319C12.7055 55.0298 12.9073 55.8419 13.2581 56.4995C13.5 56.9532 13.759 57.361 14.0344 57.7153C14.0978 57.7968 14.2153 57.8581 14.2776 57.9351V60.2612C14.0707 60.7082 13.6438 61.1414 12.7512 61.6147C11.8005 62.1189 10.4947 62.5999 9.13599 63.229C7.77726 63.8581 6.34178 64.6455 5.17212 65.9038C4.00246 67.1621 3.16565 68.917 3.03052 71.1157C3.01815 71.32 3.04769 71.5246 3.11733 71.717C3.18697 71.9094 3.29523 72.0855 3.43546 72.2345C3.57568 72.3835 3.74491 72.5022 3.93272 72.5834C4.12054 72.6646 4.32298 72.7065 4.52759 72.7065H34.5276H36.0276H38.9807H40.5276H70.5276C70.7322 72.7065 70.9346 72.6646 71.1225 72.5834C71.3103 72.5022 71.4795 72.3835 71.6197 72.2345C71.7599 72.0855 71.8682 71.9094 71.9378 71.717C72.0075 71.5246 72.037 71.32 72.0247 71.1157C71.8865 68.8677 70.902 67.0755 69.5754 65.8306C68.2489 64.5856 66.6418 63.8219 65.1018 63.1997C63.5619 62.5775 62.067 62.0929 60.9739 61.5796C59.9417 61.0949 59.4637 60.6399 59.2776 60.2524V57.9321C59.3397 57.8552 59.4575 57.7938 59.5208 57.7124C59.7958 57.3583 60.0523 56.953 60.2942 56.4995C60.6448 55.8421 60.8492 55.0296 61.0471 54.2319C61.391 54.0991 61.7203 54.1505 62.0256 53.8452C62.7073 53.1635 63.0276 52.144 63.0276 50.9565C63.0276 50.0004 62.7617 49.2623 62.427 48.7271C62.4993 48.4688 62.5204 48.4293 62.6116 48.0532C62.8105 47.2326 63.0276 46.2735 63.0276 45.3315C63.0276 43.7473 62.6207 42.0424 61.5598 40.6323C60.6743 39.4554 59.1888 38.6984 57.4524 38.4321L56.8635 37.4419C56.7309 37.2181 56.5423 37.0326 56.3163 36.9036C56.0903 36.7747 55.8346 36.7068 55.5745 36.7065C52.3258 36.7065 49.693 37.5198 47.8401 39.0708C45.9872 40.6218 45.0276 42.8994 45.0276 45.3315C45.0276 46.2735 45.2447 47.2326 45.4436 48.0532C45.5348 48.4293 45.5559 48.4688 45.6282 48.7271C45.2935 49.2623 45.0276 50.0004 45.0276 50.9565C45.0276 52.144 45.3479 53.1635 46.0295 53.8452C46.3349 54.1505 46.6641 54.0991 47.0081 54.2319C47.2055 55.0298 47.4073 55.8419 47.7581 56.4995C48 56.9532 48.259 57.361 48.5344 57.7153C48.5978 57.7968 48.7153 57.8581 48.7776 57.9351V60.2612C48.5707 60.7082 48.1438 61.1414 47.2512 61.6147C46.3005 62.1189 44.9947 62.5999 43.636 63.229C42.2773 63.8581 40.8418 64.6455 39.6721 65.9038C38.5025 67.1621 37.6657 68.917 37.5305 71.1157C37.5286 71.146 37.5276 71.1762 37.5276 71.2065C37.5275 71.1762 37.5266 71.146 37.5247 71.1157C37.3865 68.8677 36.402 67.0755 35.0754 65.8306C33.7489 64.5856 32.1418 63.8219 30.6018 63.1997C29.0619 62.5775 27.567 62.0929 26.4739 61.5796C25.4417 61.0949 24.9637 60.6399 24.7776 60.2524V57.9321C24.8397 57.8552 24.9575 57.7938 25.0208 57.7124C25.2958 57.3583 25.5523 56.953 25.7942 56.4995C26.1448 55.8421 26.3492 55.0296 26.5471 54.2319C26.891 54.0991 27.2203 54.1505 27.5256 53.8452C28.2073 53.1635 28.5276 52.144 28.5276 50.9565C28.5276 50.0004 28.2616 49.2623 27.927 48.7271C27.9993 48.4688 28.0204 48.4293 28.1116 48.0532C28.3105 47.2326 28.5276 46.2735 28.5276 45.3315C28.5276 43.7473 28.1207 42.0424 27.0598 40.6323C26.1743 39.4554 24.6888 38.6984 22.9524 38.4321L22.3635 37.4419C22.2309 37.2181 22.0423 37.0326 21.8163 36.9036C21.5903 36.7747 21.3347 36.7068 21.0745 36.7065ZM5.27759 39.7065C4.68085 39.7065 4.10855 39.9436 3.6866 40.3656C3.26464 40.7875 3.02759 41.3598 3.02759 41.9565C3.02759 42.5533 3.26464 43.1256 3.6866 43.5475C4.10855 43.9695 4.68085 44.2065 5.27759 44.2065C5.87433 44.2065 6.44662 43.9695 6.86858 43.5475C7.29054 43.1256 7.52759 42.5533 7.52759 41.9565C7.52759 41.3598 7.29054 40.7875 6.86858 40.3656C6.44662 39.9436 5.87433 39.7065 5.27759 39.7065ZM69.7776 39.7065C69.1808 39.7065 68.6086 39.9436 68.1866 40.3656C67.7646 40.7875 67.5276 41.3598 67.5276 41.9565C67.5276 42.5533 67.7646 43.1256 68.1866 43.5475C68.6086 43.9695 69.1808 44.2065 69.7776 44.2065C70.3743 44.2065 70.9466 43.9695 71.3686 43.5475C71.7905 43.1256 72.0276 42.5533 72.0276 41.9565C72.0276 41.3598 71.7905 40.7875 71.3686 40.3656C70.9466 39.9436 70.3743 39.7065 69.7776 39.7065ZM20.2834 39.812L20.676 40.4712C20.8087 40.695 20.9973 40.8805 21.2233 41.0094C21.4493 41.1384 21.7049 41.2063 21.9651 41.2065C23.3705 41.2065 24.099 41.6908 24.6604 42.437C25.2218 43.1832 25.5276 44.2908 25.5276 45.3315C25.5276 45.7021 25.3697 46.618 25.1936 47.3442C25.0175 48.0705 24.845 48.6392 24.845 48.6392C24.7526 48.9401 24.7572 49.2624 24.8582 49.5605C24.9591 49.8586 25.1513 50.1174 25.4075 50.3003C25.4271 50.3293 25.5276 50.4654 25.5276 50.9565C25.5276 51.644 25.3791 51.7495 25.4045 51.7241C25.43 51.6987 25.4651 51.7065 25.3401 51.7065C24.9706 51.7065 24.6142 51.8428 24.339 52.0894C24.0638 52.3359 23.8893 52.6753 23.8489 53.0425C23.7865 53.6092 23.4933 54.4411 23.1487 55.0874C22.9764 55.4105 22.7912 55.6916 22.6506 55.8726C22.5101 56.0535 22.3388 56.1256 22.592 55.9956C22.3465 56.1218 22.1406 56.3133 21.9969 56.549C21.8532 56.7847 21.7773 57.0555 21.7776 57.3315V60.7065C21.7781 60.8889 21.8119 61.0695 21.8772 61.2397C22.4724 62.801 23.8315 63.6544 25.1965 64.2954C26.5616 64.9364 28.0743 65.4133 29.4768 65.98C30.8793 66.5467 32.1477 67.1988 33.0217 68.019C33.5312 68.4972 33.8866 69.0574 34.1467 69.7065H6.66333C6.8967 69.1298 6.97547 68.3696 7.36938 67.9458C8.11926 67.1391 9.18685 66.5104 10.3958 65.9507C11.6047 65.391 12.9314 64.9134 14.1575 64.2632C15.3836 63.6129 16.6131 62.7235 17.178 61.2397C17.2433 61.0695 17.2771 60.8889 17.2776 60.7065V57.3315C17.2776 57.0552 17.2013 56.7842 17.0571 56.5484C16.9128 56.3127 16.7063 56.1214 16.4602 55.9956C16.7132 56.1251 16.5421 56.0533 16.4016 55.8726C16.2611 55.6918 16.0787 55.4104 15.9065 55.0874C15.562 54.4415 15.2681 53.6086 15.2063 53.0425C15.1659 52.6753 14.9913 52.3359 14.7162 52.0894C14.441 51.8428 14.0845 51.7065 13.7151 51.7065C13.5901 51.7065 13.6252 51.6987 13.6506 51.7241C13.6761 51.7495 13.5276 51.644 13.5276 50.9565C13.5276 50.4654 13.6281 50.3293 13.6477 50.3003C13.9039 50.1174 14.096 49.8586 14.197 49.5605C14.2979 49.2624 14.3026 48.9401 14.2102 48.6392C14.2102 48.6392 14.0376 48.0705 13.8616 47.3442C13.6855 46.618 13.5276 45.7021 13.5276 45.3315C13.5276 43.6387 14.0938 42.3538 15.2649 41.3735C16.3035 40.5042 18.0168 39.9452 20.2834 39.812ZM54.7834 39.812L55.176 40.4712C55.3087 40.695 55.4973 40.8805 55.7233 41.0094C55.9493 41.1384 56.2049 41.2063 56.4651 41.2065C57.8705 41.2065 58.599 41.6908 59.1604 42.437C59.7218 43.1832 60.0276 44.2908 60.0276 45.3315C60.0276 45.7021 59.8697 46.618 59.6936 47.3442C59.5175 48.0705 59.345 48.6392 59.345 48.6392C59.2526 48.9401 59.2572 49.2624 59.3582 49.5605C59.4591 49.8586 59.6513 50.1174 59.9075 50.3003C59.9271 50.3293 60.0276 50.4654 60.0276 50.9565C60.0276 51.644 59.8791 51.7495 59.9045 51.7241C59.93 51.6987 59.9651 51.7065 59.8401 51.7065C59.4706 51.7065 59.1142 51.8428 58.839 52.0894C58.5638 52.3359 58.3893 52.6753 58.3489 53.0425C58.2865 53.6092 57.9933 54.4411 57.6487 55.0874C57.4764 55.4105 57.2912 55.6916 57.1506 55.8726C57.0101 56.0535 56.8388 56.1256 57.092 55.9956C56.8465 56.1218 56.6406 56.3133 56.4969 56.549C56.3532 56.7847 56.2773 57.0555 56.2776 57.3315V60.7065C56.2781 60.8889 56.3119 61.0695 56.3772 61.2397C56.9724 62.801 58.3315 63.6544 59.6965 64.2954C61.0616 64.9364 62.5743 65.4133 63.9768 65.98C65.3793 66.5467 66.6477 67.1988 67.5217 68.019C68.0312 68.4972 68.3866 69.0574 68.6467 69.7065H41.1633C41.3967 69.1298 41.4755 68.3696 41.8694 67.9458C42.6193 67.1391 43.6869 66.5104 44.8958 65.9507C46.1047 65.391 47.4314 64.9134 48.6575 64.2632C49.8836 63.6129 51.1131 62.7235 51.678 61.2397C51.7433 61.0695 51.7771 60.8889 51.7776 60.7065V57.3315C51.7776 57.0552 51.7013 56.7842 51.5571 56.5484C51.4128 56.3127 51.2063 56.1214 50.9602 55.9956C51.2132 56.1251 51.0421 56.0533 50.9016 55.8726C50.7611 55.6918 50.5787 55.4104 50.4065 55.0874C50.062 54.4415 49.7681 53.6086 49.7063 53.0425C49.6659 52.6753 49.4913 52.3359 49.2162 52.0894C48.941 51.8428 48.5845 51.7065 48.2151 51.7065C48.0901 51.7065 48.1252 51.6987 48.1506 51.7241C48.1761 51.7495 48.0276 51.644 48.0276 50.9565C48.0276 50.4654 48.1281 50.3293 48.1477 50.3003C48.4039 50.1174 48.596 49.8586 48.697 49.5605C48.7979 49.2624 48.8026 48.9401 48.7102 48.6392C48.7102 48.6392 48.5376 48.0705 48.3616 47.3442C48.1855 46.618 48.0276 45.7021 48.0276 45.3315C48.0276 43.6387 48.5938 42.3538 49.7649 41.3735C50.8035 40.5042 52.5168 39.9452 54.7834 39.812Z" fill="#5E35B1"/>
</svg>
