<svg width="69" height="67" viewBox="0 0 69 67" fill="none" xmlns="http://www.w3.org/2000/svg">
<path d="M26.3203 0.206543C11.9473 0.206543 0 10.6479 0 23.7788C0 30.0835 2.81836 35.8081 7.28906 40.0327L7.14844 40.7241C6.14062 43.6772 3.66211 45.3472 2.19141 45.8804C1.33594 46.1851 0.626953 46.6479 0.234375 47.4565C-0.152343 48.2593 0.082032 49.3726 0.667969 49.9526C2.03906 51.3296 3.82031 51.1948 5.12109 51.2065C10.0137 51.2651 15.7793 48.6987 19.2715 46.9526L19.3125 46.9351L20.5078 46.2437L20.0508 46.103L20.1035 46.1147C22.0488 46.5659 24.0879 46.7065 26.0918 46.7065C38.7305 46.7065 49.6055 39.1538 52.0078 28.2847V28.2788C52.3301 26.8315 52.5 25.3257 52.5 23.7788C52.5 10.6597 40.6934 0.206543 26.3203 0.206543ZM26.3203 3.20654C39.2461 3.20654 49.5 12.4644 49.5 23.7788C49.5 25.1089 49.3535 26.398 49.0781 27.6343C47.0273 36.9155 37.541 43.7065 26.0918 43.7065C24.2402 43.7065 22.418 43.5659 20.7891 43.1909L20.1328 42.9976L17.9121 44.2749C14.5957 45.9331 8.87695 48.2534 5.15625 48.2065C4.64648 48.2065 4.59961 48.1069 4.24219 48.0659C6.375 47.0229 8.83594 45.1304 10.0078 41.6499L10.0312 41.5737L10.5703 39.0425L9.9082 38.4565C5.61328 34.7007 3 29.4917 3 23.7788C3 12.4761 13.3945 3.20654 26.3203 3.20654ZM13.5 13.7065V16.7065H39V13.7065H13.5ZM13.5 21.2065V24.2065H39V21.2065H13.5ZM55.1777 27.4995C55.1016 27.98 55.0488 28.4604 54.9434 28.9351C54.8262 29.4507 54.6738 29.9546 54.5215 30.4644C61.4297 33.1304 65.9766 38.5034 65.9766 44.4741C65.9766 48.7573 63.75 52.7593 59.6953 55.7534L58.8809 56.3569L59.1328 57.3413C59.9414 60.4409 62.7773 62.0405 64.7402 63.1069C61.6289 63.5288 54.8672 62.8257 51.4688 58.8062L50.9004 58.1265L50.0332 58.3022C48.668 58.5718 47.0859 58.7065 45.1875 58.7065C35.8594 58.7065 28.2832 55.0913 25.3359 49.6831C24.1172 49.6597 22.9805 49.5776 21.9141 49.4487C24.6973 56.8198 33.6445 61.7065 45.1875 61.7065C46.916 61.7065 48.4219 61.6011 49.7754 61.396C53.0859 64.7476 58.4824 66.2007 62.8535 66.2007C63.1406 66.2007 63.4277 66.1948 63.7031 66.1831C66.2402 66.0659 67.8926 65.48 68.625 64.4429C68.9473 63.9741 69.0586 63.4233 68.9297 62.8843C68.6777 61.812 67.6934 61.2847 66.3281 60.5522C64.9863 59.8257 63.2227 58.8706 62.3965 57.4468C66.5977 53.978 68.9766 49.314 68.9766 44.4741C68.9766 37.1147 63.4746 30.5464 55.1777 27.4995ZM13.5 28.7065V31.7065H31.5V28.7065H13.5ZM51.0234 37.7065C50.2734 38.7612 49.4473 39.769 48.5391 40.7065H55.5V37.7065H51.0234ZM42.8848 45.2065C40.8164 46.4487 38.5488 47.4624 36.1406 48.2065H55.5V45.2065H42.8848Z" fill="#5E35B1"/>
</svg>
