<svg width="76" height="76" viewBox="0 0 76 76" fill="none" xmlns="http://www.w3.org/2000/svg">
<g clip-path="url(#clip0_125_1343)">
<path d="M54.9788 8.18219C54.8856 8.18514 54.7927 8.19329 54.7004 8.20661H40.0276C39.6963 8.20192 39.3674 8.26313 39.06 8.38666C38.7526 8.51019 38.4728 8.6936 38.2368 8.92621C38.0009 9.15882 37.8136 9.436 37.6857 9.74164C37.5578 10.0473 37.492 10.3753 37.492 10.7066C37.492 11.0379 37.5578 11.3659 37.6857 11.6716C37.8136 11.9772 38.0009 12.2544 38.2368 12.487C38.4728 12.7196 38.7526 12.903 39.06 13.0266C39.3674 13.1501 39.6963 13.2113 40.0276 13.2066H48.9924L23.26 38.939C23.0201 39.1694 22.8285 39.4453 22.6966 39.7506C22.5646 40.056 22.4949 40.3845 22.4915 40.7171C22.4881 41.0497 22.5511 41.3797 22.6768 41.6876C22.8026 41.9956 22.9885 42.2753 23.2237 42.5105C23.4589 42.7457 23.7386 42.9316 24.0466 43.0574C24.3545 43.1831 24.6844 43.2461 25.017 43.2427C25.3497 43.2393 25.6782 43.1696 25.9836 43.0376C26.2889 42.9057 26.5648 42.7141 26.7952 42.4742L52.5276 16.7418V25.7066C52.5229 26.0379 52.5841 26.3668 52.7076 26.6742C52.8312 26.9816 53.0146 27.2614 53.2472 27.4974C53.4798 27.7333 53.757 27.9206 54.0626 28.0485C54.3683 28.1764 54.6963 28.2422 55.0276 28.2422C55.3589 28.2422 55.6869 28.1764 55.9926 28.0485C56.2982 27.9206 56.5754 27.7333 56.808 27.4974C57.0406 27.2614 57.224 26.9816 57.3475 26.6742C57.4711 26.3668 57.5323 26.0379 57.5276 25.7066V11.024C57.5774 10.6641 57.5481 10.2976 57.4418 9.95012C57.3356 9.60264 57.1548 9.28251 56.9122 9.01201C56.6696 8.7415 56.3709 8.52713 56.037 8.38382C55.7031 8.24051 55.342 8.17171 54.9788 8.18219ZM5.02759 18.2066C2.29493 18.2066 0.0275879 20.474 0.0275879 23.2066V60.7066C0.0275879 63.4393 2.29493 65.7066 5.02759 65.7066H42.5276C45.2602 65.7066 47.5276 63.4393 47.5276 60.7066V35.7066V29.2613L42.5276 34.2613V40.7066V60.7066H5.02759V23.2066H25.0276H30.0276H31.4729L36.4729 18.2066H30.0276H25.0276H5.02759Z" fill="#5E35B1"/>
</g>
<defs>
<clipPath id="clip0_125_1343">
<rect width="75" height="75" fill="white" transform="translate(0.0275879 0.706543)"/>
</clipPath>
</defs>
</svg>
