<svg width="60" height="57" viewBox="0 0 60 57" fill="none" xmlns="http://www.w3.org/2000/svg">
<path d="M24 0.0065918C22.0259 0.0065918 20.4 1.63252 20.4 3.60659V7.20659H3.6C1.6152 7.20659 0 8.82179 0 10.8066V49.2066C0 51.1914 1.6152 52.8066 3.6 52.8066H34.5211C33.9343 52.0578 33.4135 51.2562 32.9695 50.4066H3.6C2.9376 50.4066 2.4 49.8678 2.4 49.2066V32.1863C2.7768 32.3207 3.1776 32.4066 3.6 32.4066H35.5594C36.4402 31.4898 37.4325 30.687 38.5125 30.0066H3.6C2.9376 30.0066 2.4 29.4678 2.4 28.8066V10.8066C2.4 10.1454 2.9376 9.60659 3.6 9.60659H56.4C57.0624 9.60659 57.6 10.1454 57.6 10.8066V27.6066V28.8066V31.9894C58.5096 32.8654 59.3232 33.8427 60 34.9191V10.8066C60 8.82179 58.3848 7.20659 56.4 7.20659H39.6V3.60659C39.6 1.63252 37.9741 0.0065918 36 0.0065918H24ZM24 2.40659H36C36.6755 2.40659 37.2 2.93107 37.2 3.60659V7.20659H22.8V3.60659C22.8 2.93107 23.3245 2.40659 24 2.40659ZM30 22.8066C29.3635 22.8066 28.753 23.0595 28.3029 23.5095C27.8529 23.9596 27.6 24.5701 27.6 25.2066C27.6 25.8431 27.8529 26.4536 28.3029 26.9036C28.753 27.3537 29.3635 27.6066 30 27.6066C30.6365 27.6066 31.247 27.3537 31.6971 26.9036C32.1471 26.4536 32.4 25.8431 32.4 25.2066C32.4 24.5701 32.1471 23.9596 31.6971 23.5095C31.247 23.0595 30.6365 22.8066 30 22.8066ZM44.4 30.0066L43.6805 33.8457C43.3205 33.9657 42.8405 34.0861 42.4805 34.3261L39.2391 32.0457L35.6391 35.6457L37.8 38.6457C37.68 39.1257 37.4395 39.4875 37.3195 39.9675L33.6 40.5675V45.6066L37.3195 46.2066C37.4395 46.5666 37.56 47.0466 37.8 47.4066L35.6391 50.6457L39.2391 54.2457L42.4805 52.0871C42.9605 52.3271 43.32 52.4475 43.8 52.5675L44.4 56.4066H49.3195L50.0391 52.6871C50.3991 52.5671 50.7591 52.4466 51.2391 52.2066L54.4805 54.3675L58.0805 50.7675L55.8 47.6457C56.04 47.1657 56.1605 46.6861 56.2805 46.3261L60 45.6066V40.5675L56.1609 39.9675C56.0409 39.6075 55.9205 39.1275 55.6805 38.7675L57.8391 35.5261L54.3609 32.0457L51.2391 34.3261C50.8791 34.0861 50.3991 33.9657 50.0391 33.8457L49.4391 30.0066H44.4ZM46.4391 32.4066H47.4L47.8805 35.6457L48.6 35.8871C49.32 36.1271 50.0391 36.3661 50.6391 36.7261L51.3609 37.2066L54.1195 35.1675L54.7195 35.7675L52.8 38.5261L53.1609 39.1261C53.5209 39.8461 53.76 40.5671 54 41.2871L54.2391 42.0066L57.6 42.4871V43.4457L54.3609 44.1675L54.1195 44.8871C53.8795 45.6071 53.6405 46.3261 53.2805 46.9261L52.8 47.6457L54.8391 50.4066L54.1195 51.1261L51.3609 49.2066L50.7609 49.5675C50.0409 49.9275 49.32 50.1666 48.6 50.4066L47.8805 50.6457L47.2805 54.0066H46.3195L45.8391 50.7675L45.1195 50.5261C44.3995 50.2861 43.6805 50.0471 43.0805 49.6871L42.3609 49.2066L39.4805 51.1261L38.7609 50.4066L40.6805 47.6457L40.3195 47.0457C39.9595 46.3257 39.7205 45.4871 39.4805 44.8871L39.2391 44.1675L36 43.5675V42.6066L39.3609 42.0066L39.4805 41.1675C39.6005 40.5675 39.84 39.8457 40.2 39.2457L40.6805 38.6457L38.7609 35.8871L39.4805 35.1675L42.2391 37.0871L42.8391 36.8457C43.6791 36.4857 44.3995 36.1271 45.1195 35.8871L45.8391 35.7675L46.4391 32.4066ZM46.8 38.2871C44.16 38.2871 42 40.4471 42 43.0871C42 45.7271 44.16 47.8871 46.8 47.8871C49.44 47.8871 51.6 45.8471 51.6 43.0871C51.6 40.4471 49.44 38.2871 46.8 38.2871ZM46.8 40.8066C48.12 40.8066 49.2 41.7666 49.2 43.2066C49.2 44.5266 48.12 45.6066 46.8 45.6066C45.48 45.6066 44.4 44.5266 44.4 43.2066C44.4 41.8866 45.48 40.8066 46.8 40.8066Z" fill="#5E35B1"/>
</svg>
